<svg width="1354" height="313" viewBox="0 0 1354 313" fill="none" xmlns="http://www.w3.org/2000/svg">
<path fill-rule="evenodd" clip-rule="evenodd" d="M1095.56 125.605C1094.3 125.577 1092.89 126.064 1091.56 127.4L1090.28 126.12C1091.93 124.469 1093.8 123.756 1095.6 123.795C1097.38 123.834 1099.01 124.61 1100.2 125.8C1101.39 126.99 1102.16 128.62 1102.2 130.4C1102.24 132.197 1101.53 134.069 1099.88 135.72C1099.52 136.073 1098.95 136.073 1098.6 135.72C1098.24 135.367 1098.24 134.793 1098.6 134.44C1099.93 133.104 1100.42 131.697 1100.39 130.44C1100.37 129.167 1099.81 127.97 1098.92 127.08C1098.03 126.19 1096.83 125.633 1095.56 125.605Z" fill="black"/>
<path fill-rule="evenodd" clip-rule="evenodd" d="M1099.88 134.439C1100.24 134.793 1100.24 135.366 1099.88 135.719L1095.4 140.199C1095.05 140.553 1094.48 140.553 1094.12 140.199L1085.8 131.879C1085.45 131.526 1085.45 130.953 1085.8 130.599L1090.28 126.119L1091.56 127.399L1087.72 131.239L1094.76 138.279L1098.6 134.439C1098.96 134.086 1099.53 134.086 1099.88 134.439Z" fill="black"/>
<path fill-rule="evenodd" clip-rule="evenodd" d="M1082.44 148.395C1083.7 148.423 1085.11 147.936 1086.44 146.6L1087.72 147.88C1086.07 149.531 1084.2 150.244 1082.4 150.205C1080.62 150.166 1078.99 149.39 1077.8 148.2C1076.61 147.01 1075.84 145.38 1075.8 143.6C1075.76 141.803 1076.47 139.931 1078.12 138.28C1078.48 137.927 1079.05 137.927 1079.4 138.28C1079.76 138.633 1079.76 139.207 1079.4 139.56C1078.07 140.896 1077.58 142.303 1077.61 143.56C1077.63 144.833 1078.19 146.03 1079.08 146.92C1079.97 147.81 1081.17 148.367 1082.44 148.395Z" fill="#F26522"/>
<path fill-rule="evenodd" clip-rule="evenodd" d="M1078.12 139.56C1077.76 139.206 1077.76 138.633 1078.12 138.28L1082.6 133.8C1082.95 133.446 1083.52 133.446 1083.88 133.8L1092.2 142.12C1092.55 142.473 1092.55 143.046 1092.2 143.4L1087.72 147.88L1086.44 146.6L1090.28 142.76L1083.24 135.72L1079.4 139.56C1079.04 139.913 1078.47 139.913 1078.12 139.56Z" fill="#F26522"/>
<path fill-rule="evenodd" clip-rule="evenodd" d="M215.362 158.77C215.964 158.77 216.453 159.252 216.453 159.846V174.923C216.453 175.518 215.964 176 215.362 176H209.907C209.305 176 208.816 175.518 208.816 174.923V160.798C208.816 160.203 209.305 159.721 209.907 159.721C210.51 159.721 210.998 160.203 210.998 160.798V173.846H214.271V159.846C214.271 159.252 214.759 158.77 215.362 158.77Z" fill="black"/>
<path fill-rule="evenodd" clip-rule="evenodd" d="M199 149.077C199 148.482 199.488 148 200.091 148H208.818C208.909 148 208.999 148.011 209.087 148.033L216.591 149.915H221.909C222.512 149.915 223 150.397 223 150.991V155.778C223 156.373 222.512 156.855 221.909 156.855H216.591L209.087 158.736C208.999 158.758 208.909 158.769 208.818 158.769H200.091C199.488 158.769 199 158.287 199 157.692V149.077ZM201.182 150.154V156.615H208.682L216.186 154.734C216.274 154.712 216.364 154.701 216.455 154.701H220.818V152.068H216.455C216.364 152.068 216.274 152.057 216.186 152.035L208.682 150.154H201.182Z" fill="#F26522"/>
<path d="M231.72 51.4851C231.168 51.6642 230.863 52.2501 231.101 52.7695C231.794 54.2826 232.857 55.6123 234.203 56.6375C235.826 57.8745 237.788 58.6128 239.841 58.759C241.893 58.9052 243.944 58.4527 245.733 57.4587C247.523 56.4648 248.971 54.9741 249.895 53.175C250.818 51.376 251.175 49.3495 250.922 47.3517C250.668 45.3539 249.814 43.4747 248.468 41.9516C247.123 40.4285 245.346 39.3299 243.362 38.7948C241.718 38.3514 239.993 38.3115 238.338 38.6713C237.77 38.7948 237.472 39.3835 237.655 39.9238C237.838 40.464 238.433 40.7499 239.004 40.6407C240.26 40.4006 241.56 40.4469 242.802 40.7819C244.384 41.2086 245.801 42.0847 246.874 43.2994C247.947 44.5141 248.628 46.0128 248.831 47.606C249.033 49.1992 248.748 50.8153 248.012 52.25C247.275 53.6848 246.12 54.8736 244.693 55.6663C243.266 56.459 241.631 56.8198 239.994 56.7032C238.357 56.5866 236.792 55.9979 235.498 55.0113C234.481 54.2368 233.667 53.2443 233.114 52.116C232.862 51.6027 232.272 51.306 231.72 51.4851Z" fill="#D9D9D9"/>
<path fill-rule="evenodd" clip-rule="evenodd" d="M239.224 40.6016C240.411 40.407 241.632 40.4664 242.802 40.7819C244.384 41.2086 245.801 42.0847 246.874 43.2994C247.947 44.5141 248.628 46.0128 248.831 47.606C249.033 49.1992 248.748 50.8153 248.012 52.25C247.275 53.6848 246.12 54.8736 244.693 55.6663C243.266 56.459 241.631 56.8198 239.994 56.7032C238.357 56.5866 236.792 55.9979 235.498 55.0113C234.54 54.2819 233.762 53.3593 233.213 52.312C233.179 52.2471 233.146 52.1818 233.114 52.116C233.083 52.0522 233.046 51.9917 233.005 51.9351C232.716 51.5363 232.203 51.3283 231.72 51.4851C231.168 51.6642 230.863 52.2501 231.101 52.7695C231.138 52.8492 231.175 52.9283 231.214 53.007C231.27 53.1219 231.329 53.2357 231.389 53.3483C232.075 54.6221 233.032 55.7451 234.203 56.6375C235.826 57.8745 237.788 58.6128 239.841 58.759C241.893 58.9052 243.944 58.4527 245.733 57.4587C247.523 56.4648 248.971 54.9741 249.895 53.175C250.818 51.376 251.175 49.3495 250.922 47.3517C250.668 45.3539 249.814 43.4747 248.468 41.9516C247.123 40.4285 245.346 39.3299 243.362 38.7948C241.931 38.4088 240.438 38.3286 238.985 38.5516C238.856 38.5713 238.728 38.5933 238.6 38.6178C238.513 38.6345 238.425 38.6524 238.338 38.6713C237.77 38.7948 237.472 39.3835 237.655 39.9238C237.815 40.3969 238.292 40.6749 238.791 40.6634C238.862 40.6618 238.933 40.6543 239.004 40.6407C239.078 40.6267 239.151 40.6137 239.224 40.6016Z" fill="black"/>
<path fill-rule="evenodd" clip-rule="evenodd" d="M232.383 60.9289C232.383 60.3371 232.873 59.8574 233.478 59.8574L247.716 59.8574C248.321 59.8574 248.811 60.3371 248.811 60.9289C248.811 61.5206 248.321 62.0003 247.716 62.0003H233.478C232.873 62.0003 232.383 61.5206 232.383 60.9289Z" fill="#F26522"/>
<path fill-rule="evenodd" clip-rule="evenodd" d="M228 52.3576C228 51.7658 228.49 51.2861 229.095 51.2861L241.143 51.2861C241.748 51.2861 242.238 51.7658 242.238 52.3576C242.238 52.9493 241.748 53.429 241.143 53.429L229.095 53.429C228.49 53.429 228 52.9493 228 52.3576Z" fill="black"/>
<path fill-rule="evenodd" clip-rule="evenodd" d="M231.285 34.1429C231.285 32.9594 232.266 32 233.476 32H235.666C236.876 32 237.857 32.9594 237.857 34.1429V35.2143C237.857 36.3978 236.876 37.3571 235.666 37.3571H233.476C232.266 37.3571 231.285 36.3978 231.285 35.2143V34.1429ZM235.666 34.1429H233.476V35.2143L235.666 35.2143V34.1429Z" fill="black"/>
<path fill-rule="evenodd" clip-rule="evenodd" d="M230.191 37.3567C230.191 36.1733 231.172 35.2139 232.382 35.2139H236.763C237.973 35.2139 238.953 36.1733 238.953 37.3567V43.7853C238.953 44.9688 237.973 45.9282 236.763 45.9282H232.382C231.172 45.9282 230.191 44.9688 230.191 43.7853V37.3567ZM236.763 37.3567H232.382V43.7853H236.763V37.3567Z" fill="#F26522"/>
<path fill-rule="evenodd" clip-rule="evenodd" d="M130.213 266C130.786 266 131.251 266.441 131.251 266.986C131.251 270.798 132.142 273.553 133.382 275.322C134.617 277.085 136.166 277.843 137.589 277.843C139.011 277.843 140.56 277.085 141.795 275.322C143.035 273.553 143.926 270.798 143.926 266.986C143.926 266.441 144.391 266 144.964 266C145.537 266 146.001 266.441 146.001 266.986C146.001 271.069 145.049 274.235 143.523 276.414C141.992 278.598 139.853 279.814 137.589 279.814C135.324 279.814 133.185 278.598 131.654 276.414C130.128 274.235 129.176 271.069 129.176 266.986C129.176 266.441 129.64 266 130.213 266Z" fill="black"/>
<path fill-rule="evenodd" clip-rule="evenodd" d="M137.018 281.611C137.591 281.611 138.056 282.053 138.056 282.597C138.056 290.641 134.218 295.232 129.81 295.915C127.626 296.253 125.443 295.578 123.827 293.991C122.217 292.41 121.23 289.991 121.23 286.904C121.23 286.359 121.695 285.918 122.268 285.918C122.841 285.918 123.305 286.359 123.305 286.904C123.305 289.6 124.162 291.485 125.318 292.621C126.468 293.75 127.972 294.202 129.476 293.969C132.444 293.51 135.981 290.165 135.981 282.597C135.981 282.053 136.446 281.611 137.018 281.611Z" fill="black"/>
<path d="M125.673 281.521C125.673 283.007 124.403 284.212 122.837 284.212C121.27 284.212 120 283.007 120 281.521C120 280.034 121.27 278.829 122.837 278.829C124.403 278.829 125.673 280.034 125.673 281.521Z" fill="#F26522"/>
<path fill-rule="evenodd" clip-rule="evenodd" d="M1151.2 58.814C1151.36 58.4377 1151.27 57.992 1150.96 57.6936C1150.54 57.2998 1149.87 57.3119 1149.47 57.7207L1144.73 62.5132C1144.33 62.922 1144.34 63.5727 1144.76 63.9666L1146.16 65.2872C1146.58 65.6811 1147.25 65.669 1147.65 65.2602L1152.39 60.4676C1152.79 60.0588 1152.78 59.4081 1152.36 59.0143C1152.04 58.7159 1151.58 58.6505 1151.2 58.814Z" fill="black"/>
<path fill-rule="evenodd" clip-rule="evenodd" d="M1167.9 41.9222C1168.32 42.316 1168.33 42.9667 1167.92 43.3755L1154.39 57.0686C1153.99 57.4774 1153.32 57.4895 1152.9 57.0956C1152.48 56.7017 1152.47 56.051 1152.88 55.6422L1166.41 41.9492C1166.81 41.5404 1167.48 41.5283 1167.9 41.9222Z" fill="#F26522"/>
<path fill-rule="evenodd" clip-rule="evenodd" d="M1167.06 39.9458C1166.43 39.9007 1165.75 40.0966 1165.12 40.734L1151.58 54.4271C1151.18 54.8359 1150.51 54.8479 1150.1 54.4541C1149.68 54.0602 1149.67 53.4095 1150.07 53.0007L1163.6 39.3076C1164.66 38.2334 1165.95 37.8059 1167.22 37.8955C1168.45 37.9828 1169.59 38.5543 1170.44 39.3544C1171.29 40.1546 1171.91 41.2419 1172.05 42.4398C1172.18 43.6682 1171.79 44.9423 1170.73 46.0165L1157.2 59.7096C1156.79 60.1183 1156.13 60.1304 1155.71 59.7366C1155.29 59.3427 1155.28 58.692 1155.68 58.2832L1169.21 44.5901C1169.84 43.9527 1170.02 43.2827 1169.95 42.6649C1169.88 42.0165 1169.53 41.3553 1168.97 40.8348C1168.42 40.3143 1167.73 39.9931 1167.06 39.9458Z" fill="black"/>
<path fill-rule="evenodd" clip-rule="evenodd" d="M1151.9 52.6311C1152.32 53.025 1152.33 53.6757 1151.92 54.0845C1151.08 54.9389 1150.8 55.7832 1150.81 56.4878C1150.83 57.2062 1151.15 57.8692 1151.66 58.3533C1152.17 58.8375 1152.86 59.1245 1153.6 59.1115C1154.32 59.0987 1155.18 58.795 1156.02 57.9407C1156.43 57.5319 1157.09 57.5198 1157.51 57.9136C1157.93 58.3075 1157.94 58.9582 1157.54 59.367C1156.35 60.5666 1154.98 61.1431 1153.64 61.1668C1152.31 61.1903 1151.09 60.6702 1150.2 59.8337C1149.31 58.9972 1148.73 57.8261 1148.71 56.527C1148.68 55.2142 1149.22 53.8578 1150.41 52.6582C1150.81 52.2494 1151.48 52.2373 1151.9 52.6311Z" fill="black"/>
<path fill-rule="evenodd" clip-rule="evenodd" d="M1326.83 153.156C1329.42 150.737 1333.24 149.431 1338.17 150.239L1337.83 152.412C1333.47 151.696 1330.33 152.867 1328.27 154.783C1326.2 156.723 1325.14 159.514 1325.14 162.186C1325.14 164.864 1326.19 167.286 1328.15 168.632C1330.09 169.963 1333.17 170.415 1337.6 168.596L1338.4 170.639C1333.54 172.631 1329.66 172.321 1326.96 170.46C1324.27 168.614 1323 165.416 1323 162.186C1323 158.952 1324.27 155.55 1326.83 153.156Z" fill="#F26522"/>
<path fill-rule="evenodd" clip-rule="evenodd" d="M1349.17 153.156C1346.58 150.737 1342.76 149.431 1337.83 150.239L1338.17 152.412C1342.53 151.696 1345.67 152.867 1347.73 154.783C1349.8 156.723 1350.86 159.514 1350.86 162.186C1350.86 164.864 1349.81 167.286 1347.85 168.632C1345.91 169.963 1342.83 170.415 1338.4 168.596L1337.6 170.639C1342.46 172.631 1346.34 172.321 1349.04 170.46C1351.73 168.614 1353 165.416 1353 162.186C1353 158.952 1351.73 155.55 1349.17 153.156Z" fill="#F26522"/>
<path fill-rule="evenodd" clip-rule="evenodd" d="M1339.07 151.1V169.8H1336.93V151.1H1339.07Z" fill="#F26522"/>
<path fill-rule="evenodd" clip-rule="evenodd" d="M1325.86 160.521C1325.6 160.752 1325.3 161.111 1324.95 161.629L1323.19 160.371C1323.59 159.788 1324 159.265 1324.45 158.865C1324.89 158.464 1325.43 158.133 1326.07 158.052C1327.41 157.882 1328.49 158.845 1329.4 160.083C1329.76 160.573 1330.17 160.781 1330.43 160.83C1330.54 160.851 1330.6 160.845 1330.62 160.837C1331.12 159.992 1332.16 159.118 1333.38 159.184C1334.05 159.22 1334.68 159.546 1335.16 160.144C1335.61 160.715 1335.91 161.499 1336.07 162.46C1336.17 163.058 1335.78 163.628 1335.2 163.733C1334.62 163.838 1334.06 163.438 1333.96 162.84C1333.83 162.094 1333.64 161.713 1333.5 161.537C1333.38 161.388 1333.3 161.383 1333.27 161.381C1333.2 161.377 1333.06 161.402 1332.88 161.522C1332.71 161.641 1332.55 161.811 1332.46 161.978C1331.91 162.93 1330.88 163.154 1330.04 162.993C1329.17 162.83 1328.33 162.271 1327.69 161.407C1326.83 160.234 1326.42 160.225 1326.34 160.235C1326.27 160.244 1326.11 160.292 1325.86 160.521ZM1330.65 160.825C1330.65 160.826 1330.64 160.831 1330.63 160.835C1330.64 160.826 1330.65 160.824 1330.65 160.825Z" fill="#F26522"/>
<path fill-rule="evenodd" clip-rule="evenodd" d="M1351.99 160.755C1352.16 160.885 1352.25 160.928 1352.28 160.937L1351.58 163.018C1351.26 162.905 1350.97 162.714 1350.73 162.535C1350.48 162.35 1350.23 162.131 1349.99 161.915C1349.83 161.772 1349.68 161.631 1349.53 161.493C1349.2 161.189 1348.89 160.901 1348.57 160.638C1348.08 160.244 1347.75 160.068 1347.55 160.03C1347.52 160.022 1347.5 160.023 1347.49 160.024C1347.49 160.024 1347.49 160.024 1347.49 160.024C1347.49 160.024 1347.48 160.024 1347.48 160.024L1347.48 160.025L1347.48 160.027C1347.47 160.03 1347.47 160.035 1347.46 160.045C1347.43 160.064 1347.4 160.101 1347.35 160.17C1346.71 161.096 1345.67 161.032 1345.13 160.955C1344.83 160.912 1344.52 160.84 1344.26 160.779C1344.26 160.777 1344.25 160.775 1344.24 160.773C1343.96 160.707 1343.73 160.653 1343.51 160.623C1343.27 160.588 1343.16 160.599 1343.11 160.609C1343.07 160.69 1342.95 161.029 1343.05 161.986C1343.11 162.59 1342.68 163.131 1342.09 163.194C1341.5 163.257 1340.98 162.818 1340.92 162.214C1340.79 160.947 1340.89 159.828 1341.54 159.097C1342.25 158.31 1343.23 158.361 1343.81 158.444C1344.12 158.489 1344.44 158.564 1344.7 158.625L1344.72 158.629C1345 158.696 1345.23 158.748 1345.42 158.776C1345.55 158.793 1345.62 158.797 1345.67 158.797C1345.94 158.445 1346.26 158.161 1346.67 157.991C1347.11 157.804 1347.55 157.79 1347.95 157.868C1348.7 158.012 1349.38 158.488 1349.9 158.911C1350.28 159.223 1350.68 159.593 1351.03 159.917C1351.16 160.042 1351.29 160.161 1351.41 160.266C1351.63 160.468 1351.82 160.632 1351.99 160.755ZM1345.74 158.79C1345.74 158.79 1345.74 158.792 1345.73 158.793C1345.74 158.79 1345.74 158.79 1345.74 158.79ZM1343.08 160.617C1343.08 160.617 1343.09 160.615 1343.09 160.614C1343.09 160.616 1343.08 160.617 1343.08 160.617Z" fill="#F26522"/>
<path fill-rule="evenodd" clip-rule="evenodd" d="M1329.05 153.849C1329.05 153.849 1329.03 153.849 1329 153.842C1328.97 153.835 1328.94 153.823 1328.91 153.806C1328.88 153.785 1328.86 153.767 1328.86 153.767C1328.86 153.767 1328.87 153.773 1328.88 153.789C1328.92 153.843 1328.97 153.915 1329.06 154.07C1329.15 154.208 1329.27 154.395 1329.41 154.59C1330.08 155.47 1331.15 156.282 1333.38 156.59C1333.97 156.671 1334.51 156.248 1334.59 155.646C1334.66 155.044 1334.25 154.49 1333.67 154.409C1331.92 154.167 1331.38 153.604 1331.11 153.246C1331.03 153.132 1330.95 153.018 1330.87 152.879C1330.86 152.87 1330.85 152.861 1330.85 152.851C1330.77 152.73 1330.67 152.564 1330.55 152.414C1330.42 152.243 1330.23 152.039 1329.96 151.884C1329.67 151.723 1329.37 151.649 1329.05 151.649V153.849Z" fill="#F26522"/>
<path fill-rule="evenodd" clip-rule="evenodd" d="M1347.26 165.621C1348.03 166.783 1348.39 168.34 1348.51 169.383L1346.39 169.641C1346.28 168.765 1345.98 167.609 1345.49 166.865C1345.25 166.504 1345.02 166.325 1344.82 166.255C1344.66 166.196 1344.39 166.165 1343.94 166.391C1343.4 166.655 1342.76 166.426 1342.51 165.879C1342.25 165.331 1342.47 164.674 1343 164.41C1343.87 163.978 1344.74 163.891 1345.54 164.18C1346.3 164.458 1346.86 165.03 1347.26 165.621Z" fill="#F26522"/>
<path fill-rule="evenodd" clip-rule="evenodd" d="M1341.9 153.2C1341.92 152.554 1341.75 151.903 1341.59 151.527L1343.57 150.673C1343.81 151.276 1344.07 152.238 1344.04 153.254C1344.02 154.28 1343.7 155.504 1342.64 156.363C1342.18 156.74 1341.5 156.659 1341.14 156.183C1340.77 155.706 1340.85 155.014 1341.31 154.637C1341.7 154.323 1341.88 153.836 1341.9 153.2Z" fill="#F26522"/>
<path fill-rule="evenodd" clip-rule="evenodd" d="M1330.37 168.275C1330.09 168.956 1330.07 169.972 1330.18 170.743L1328.05 171.058C1327.92 170.106 1327.9 168.624 1328.4 167.41C1328.67 166.781 1329.1 166.153 1329.8 165.765C1330.51 165.373 1331.35 165.306 1332.27 165.522C1332.85 165.659 1333.21 166.249 1333.07 166.841C1332.94 167.433 1332.36 167.802 1331.79 167.666C1331.25 167.538 1330.96 167.622 1330.82 167.703C1330.66 167.789 1330.51 167.957 1330.37 168.275Z" fill="#F26522"/>
<path fill-rule="evenodd" clip-rule="evenodd" d="M1021 4.12545C1021 2.9516 1021.95 2 1023.12 2H1037.14C1038.31 2 1039.26 2.9516 1039.26 4.12545V16.033C1039.26 16.6224 1039.02 17.1854 1038.59 17.5874L1032.95 22.8634C1032.56 23.2303 1032.04 23.4344 1031.51 23.4344H1023.12C1021.95 23.4344 1021 22.4828 1021 21.3089V4.12545ZM1037.14 4.12545L1023.12 4.12545V21.3089H1031.51L1037.14 16.033V4.12545Z" fill="black"/>
<path fill-rule="evenodd" clip-rule="evenodd" d="M1023.69 7.25999C1023.69 6.67306 1024.17 6.19727 1024.75 6.19727H1030.58C1031.17 6.19727 1031.64 6.67306 1031.64 7.25999C1031.64 7.84692 1031.17 8.32272 1030.58 8.32272H1024.75C1024.17 8.32272 1023.69 7.84692 1023.69 7.25999ZM1023.69 11.4576C1023.69 10.8707 1024.17 10.3949 1024.75 10.3949H1032.82C1033.41 10.3949 1033.88 10.8707 1033.88 11.4576C1033.88 12.0445 1033.41 12.5203 1032.82 12.5203H1024.75C1024.17 12.5203 1023.69 12.0445 1023.69 11.4576ZM1023.69 14.3959C1023.69 13.809 1024.17 13.3332 1024.75 13.3332H1032.82C1033.41 13.3332 1033.88 13.809 1033.88 14.3959C1033.88 14.9828 1033.41 15.4586 1032.82 15.4586H1024.75C1024.17 15.4586 1023.69 14.9828 1023.69 14.3959ZM1023.69 17.3342C1023.69 16.7473 1024.17 16.2715 1024.75 16.2715H1032.82C1033.41 16.2715 1033.88 16.7473 1033.88 17.3342C1033.88 17.9212 1033.41 18.397 1032.82 18.397H1024.75C1024.17 18.397 1023.69 17.9212 1023.69 17.3342Z" fill="black"/>
<path fill-rule="evenodd" clip-rule="evenodd" d="M1047.41 16.734C1048.3 17.5284 1048.32 18.8535 1047.45 19.6678L1038.06 28.4595C1037.22 29.2464 1035.86 29.2618 1035 28.4941L1030.91 24.8446C1030.01 24.0503 1030 22.7252 1030.87 21.9109L1040.26 13.1192C1041.1 12.3323 1042.46 12.3169 1043.32 13.0845L1047.41 16.734ZM1045.9 18.2182L1041.81 14.5687L1032.42 23.3604L1036.51 27.0099L1045.9 18.2182Z" fill="#F26522"/>
<path d="M1042.35 17.5994C1041.96 17.9641 1041.32 17.9641 1040.94 17.5994C1040.55 17.2347 1040.55 16.6433 1040.94 16.2786C1041.32 15.9138 1041.96 15.9138 1042.35 16.2786C1042.74 16.6433 1042.74 17.2347 1042.35 17.5994Z" fill="#F26522"/>
<path d="M1044.23 19.3611C1043.84 19.7259 1043.21 19.7259 1042.82 19.3611C1042.43 18.9964 1042.43 18.405 1042.82 18.0403C1043.21 17.6756 1043.84 17.6756 1044.23 18.0403C1044.62 18.405 1044.62 18.9964 1044.23 19.3611Z" fill="#F26522"/>
<path d="M1039.99 19.8015C1039.6 20.1663 1038.97 20.1663 1038.58 19.8015C1038.19 19.4368 1038.19 18.8455 1038.58 18.4807C1038.97 18.116 1039.6 18.116 1039.99 18.4807C1040.38 18.8455 1040.38 19.4368 1039.99 19.8015Z" fill="#F26522"/>
<path d="M1041.88 21.5623C1041.49 21.927 1040.86 21.927 1040.47 21.5623C1040.08 21.1975 1040.08 20.6062 1040.47 20.2414C1040.86 19.8767 1041.49 19.8767 1041.88 20.2414C1042.27 20.6062 1042.27 21.1975 1041.88 21.5623Z" fill="#F26522"/>
<path d="M1038.12 21.5623C1037.73 21.927 1037.09 21.927 1036.7 21.5623C1036.31 21.1976 1036.31 20.6062 1036.7 20.2415C1037.09 19.8767 1037.73 19.8767 1038.12 20.2415C1038.51 20.6062 1038.51 21.1976 1038.12 21.5623Z" fill="#F26522"/>
<path d="M1039.99 23.323C1039.6 23.6878 1038.97 23.6878 1038.58 23.323C1038.19 22.9583 1038.19 22.3669 1038.58 22.0022C1038.97 21.6375 1039.6 21.6375 1039.99 22.0022C1040.38 22.3669 1040.38 22.9583 1039.99 23.323Z" fill="#F26522"/>
<path d="M1035.76 23.7635C1035.37 24.1282 1034.74 24.1282 1034.35 23.7635C1033.96 23.3987 1033.96 22.8074 1034.35 22.4426C1034.74 22.0779 1035.37 22.0779 1035.76 22.4426C1036.15 22.8074 1036.15 23.3987 1035.76 23.7635Z" fill="#F26522"/>
<path d="M1037.64 25.5252C1037.25 25.8899 1036.62 25.8899 1036.23 25.5252C1035.84 25.1604 1035.84 24.5691 1036.23 24.2044C1036.62 23.8396 1037.25 23.8396 1037.64 24.2044C1038.03 24.5691 1038.03 25.1604 1037.64 25.5252Z" fill="#F26522"/>
<path fill-rule="evenodd" clip-rule="evenodd" d="M1316.34 291.931C1316.34 291.421 1316.75 291.008 1317.26 291.008H1323.15C1324.17 291.008 1325 291.834 1325 292.854V307.154C1325 308.173 1324.17 309 1323.15 309H1312.64C1311.62 309 1310.8 308.173 1310.8 307.154V303.196C1310.8 302.686 1311.21 302.272 1311.72 302.272C1312.23 302.272 1312.64 302.686 1312.64 303.196V307.154H1323.15V292.854H1317.26C1316.75 292.854 1316.34 292.441 1316.34 291.931Z" fill="#F26522"/>
<path fill-rule="evenodd" clip-rule="evenodd" d="M1302.85 286.846V302.273H1316.34V286.846H1302.85ZM1301 286.846C1301 285.827 1301.83 285 1302.85 285H1316.34C1317.36 285 1318.18 285.827 1318.18 286.846V302.273C1318.18 303.292 1317.36 304.119 1316.34 304.119H1302.85C1301.83 304.119 1301 303.292 1301 302.273V286.846Z" fill="black"/>
<path fill-rule="evenodd" clip-rule="evenodd" d="M1303.55 289.678C1303.55 289.168 1303.97 288.755 1304.48 288.755H1310.02C1310.53 288.755 1310.94 289.168 1310.94 289.678C1310.94 290.188 1310.53 290.601 1310.02 290.601H1304.48C1303.97 290.601 1303.55 290.188 1303.55 289.678ZM1303.55 293.433C1303.55 292.923 1303.97 292.51 1304.48 292.51H1312.15C1312.66 292.51 1313.07 292.923 1313.07 293.433C1313.07 293.943 1312.66 294.356 1312.15 294.356H1304.48C1303.97 294.356 1303.55 293.943 1303.55 293.433ZM1303.55 296.061C1303.55 295.551 1303.97 295.138 1304.48 295.138H1312.15C1312.66 295.138 1313.07 295.551 1313.07 296.061C1313.07 296.571 1312.66 296.984 1312.15 296.984H1304.48C1303.97 296.984 1303.55 296.571 1303.55 296.061ZM1303.55 298.69C1303.55 298.18 1303.97 297.767 1304.48 297.767H1312.15C1312.66 297.767 1313.07 298.18 1313.07 298.69C1313.07 299.2 1312.66 299.613 1312.15 299.613H1304.48C1303.97 299.613 1303.55 299.2 1303.55 298.69Z" fill="black"/>
<path fill-rule="evenodd" clip-rule="evenodd" d="M1139.61 235.89L1136.43 239.07L1134.93 237.571L1138.11 234.391C1138.52 233.977 1139.2 233.977 1139.61 234.391C1140.02 234.805 1140.02 235.476 1139.61 235.89Z" fill="black"/>
<path fill-rule="evenodd" clip-rule="evenodd" d="M1146.32 219.24C1146.6 219.241 1146.87 219.353 1147.07 219.553L1154.45 226.973C1154.86 227.387 1154.86 228.057 1154.45 228.47L1145.97 236.95C1145.6 237.323 1145 237.365 1144.58 237.049L1140.34 233.869C1140.26 233.808 1140.19 233.737 1140.13 233.657L1136.95 229.417C1136.63 228.994 1136.68 228.402 1137.05 228.029L1145.57 219.549C1145.77 219.351 1146.04 219.24 1146.32 219.24ZM1139.2 228.882L1141.74 232.264L1145.12 234.801L1152.2 227.719L1146.31 221.8L1139.2 228.882Z" fill="#F26522"/>
<path fill-rule="evenodd" clip-rule="evenodd" d="M1131.75 235.451C1132.16 235.037 1132.84 235.037 1133.25 235.451L1138.55 240.751C1138.96 241.165 1138.96 241.836 1138.55 242.25C1138.14 242.664 1137.46 242.664 1137.05 242.25L1131.75 236.95C1131.34 236.536 1131.34 235.865 1131.75 235.451Z" fill="black"/>
<path fill-rule="evenodd" clip-rule="evenodd" d="M1158.69 215.31C1159.11 215.724 1159.11 216.396 1158.69 216.81L1152.33 223.17L1150.83 221.671L1157.19 215.31C1157.61 214.897 1158.28 214.897 1158.69 215.31Z" fill="black"/>
<path fill-rule="evenodd" clip-rule="evenodd" d="M1147.12 227.94L1143.41 224.23L1144.91 222.73L1148.62 226.441C1149.03 226.855 1149.03 227.526 1148.62 227.94C1148.2 228.354 1147.53 228.354 1147.12 227.94ZM1143.41 230.06L1139.7 226.35L1140.45 225.6L1141.2 224.851L1144.91 228.561C1145.32 228.975 1145.32 229.646 1144.91 230.06C1144.49 230.474 1143.82 230.474 1143.41 230.06Z" fill="#F26522"/>
<path fill-rule="evenodd" clip-rule="evenodd" d="M21.574 187.086C20.332 186.987 18.8752 187.385 17.4018 188.654C16.9484 189.045 16.2635 188.994 15.8721 188.542C15.4807 188.09 15.531 187.406 15.9844 187.016C17.8465 185.412 19.863 184.779 21.7463 184.929C23.6138 185.077 25.2598 185.989 26.4041 187.312C27.5484 188.634 28.2123 190.392 28.0867 192.257C27.96 194.138 27.0376 196.035 25.1755 197.639C24.7221 198.03 24.0372 197.979 23.6458 197.527C23.2544 197.075 23.3047 196.391 23.7581 196.001C25.2315 194.732 25.8389 193.352 25.9224 192.112C26.007 190.856 25.5612 189.649 24.7621 188.726C23.963 187.802 22.8318 187.186 21.574 187.086Z" fill="black"/>
<path fill-rule="evenodd" clip-rule="evenodd" d="M17.5134 187.128C17.9048 187.58 17.8545 188.263 17.4011 188.654L11.1471 194.04C10.6937 194.43 10.0088 194.38 9.61744 193.928C9.22603 193.475 9.27632 192.792 9.72975 192.402L15.9837 187.016C16.4371 186.625 17.122 186.675 17.5134 187.128ZM25.2871 196.113C25.6785 196.565 25.6282 197.248 25.1747 197.639L18.9208 203.025C18.4674 203.415 17.7825 203.365 17.3911 202.913C16.9997 202.46 17.05 201.777 17.5034 201.387L23.7574 196.001C24.2108 195.61 24.8957 195.66 25.2871 196.113Z" fill="black"/>
<path fill-rule="evenodd" clip-rule="evenodd" d="M10.2756 201.723C10.215 202.318 9.68271 202.751 9.08679 202.69C8.42897 202.624 7.71139 202.609 7.09901 202.68C6.48172 202.751 6.15969 202.89 6.04182 202.978C6.05046 203.022 6.0738 203.103 6.13681 203.227C6.37648 203.701 7.01575 204.469 8.39392 205.579C9.31208 206.319 9.96995 207.017 10.3057 207.695C10.4796 208.046 10.5941 208.446 10.562 208.87C10.5284 209.314 10.3407 209.694 10.0629 209.987C9.56022 210.516 8.81724 210.712 8.22013 210.79C7.57373 210.876 6.84705 210.855 6.14346 210.765C5.43589 210.674 4.71045 210.507 4.06096 210.275C3.42973 210.05 2.78692 209.734 2.31576 209.3C1.83449 208.857 1.37342 208.114 1.66321 207.202C1.90937 206.427 2.61184 205.878 3.39607 205.464C3.92554 205.185 4.58183 205.387 4.86194 205.915C5.14205 206.443 4.9399 207.098 4.41044 207.377C4.10575 207.538 3.93284 207.667 3.83716 207.753C4.01542 207.898 4.33276 208.074 4.79163 208.238C5.27895 208.412 5.85053 208.545 6.42025 208.618C6.99394 208.692 7.52478 208.699 7.93619 208.645C8.10484 208.623 8.22717 208.594 8.31331 208.567C8.15411 208.302 7.78442 207.87 7.03116 207.263C5.59298 206.104 4.65437 205.1 4.20023 204.202C3.96639 203.74 3.82583 203.237 3.87852 202.72C3.93362 202.18 4.18844 201.741 4.53652 201.416C5.16451 200.832 6.0918 200.618 6.84856 200.53C7.66094 200.436 8.54336 200.46 9.30636 200.537C9.90228 200.598 10.3362 201.129 10.2756 201.723Z" fill="#F26522"/>
<path fill-rule="evenodd" clip-rule="evenodd" d="M9.23352 197.713C9.31704 196.473 9.92444 195.093 11.3978 193.825C11.8512 193.434 11.9015 192.751 11.5101 192.298C11.1187 191.846 10.4338 191.796 9.9804 192.186C8.11834 193.79 7.19588 195.688 7.06924 197.568C6.94367 199.433 7.6075 201.191 8.75179 202.514C9.89607 203.836 11.5421 204.748 13.4096 204.897C15.2929 205.046 17.3094 204.413 19.1715 202.809C19.6249 202.419 19.6752 201.736 19.2838 201.283C18.8924 200.831 18.2075 200.781 17.7541 201.171C16.2807 202.44 14.824 202.838 13.5819 202.739C12.3242 202.639 11.1929 202.023 10.3938 201.1C9.59467 200.176 9.14895 198.969 9.23352 197.713Z" fill="black"/>
<path d="M16.8275 192.555C16.6909 192.998 16.2206 193.246 15.7771 193.11C15.3336 192.974 15.0848 192.504 15.2214 192.062C15.358 191.619 15.8283 191.371 16.2718 191.508C16.7153 191.644 16.9641 192.113 16.8275 192.555Z" fill="#F26522"/>
<path d="M23.1907 191.88C23.0541 192.322 22.5839 192.57 22.1404 192.434C21.6969 192.298 21.4481 191.829 21.5847 191.386C21.7213 190.944 22.1916 190.695 22.6351 190.832C23.0786 190.968 23.3273 191.437 23.1907 191.88Z" fill="#F26522"/>
<path d="M15.6517 199.212C15.5151 199.654 15.0448 199.902 14.6013 199.766C14.1578 199.63 13.909 199.161 14.0456 198.718C14.1822 198.276 14.6525 198.027 15.096 198.164C15.5395 198.3 15.7883 198.769 15.6517 199.212Z" fill="#F26522"/>
<path fill-rule="evenodd" clip-rule="evenodd" d="M42.9231 44.0542C42.9231 42.0063 42.2189 40.5612 41.2408 39.6244C40.2481 38.6734 38.9057 38.1818 37.5385 38.1818C36.1713 38.1818 34.8289 38.6734 33.8361 39.6244C32.858 40.5612 32.1538 42.0063 32.1538 44.0542C32.1538 46.3074 32.6196 47.955 33.3428 49.2421C34.0698 50.5362 35.0974 51.5378 36.3305 52.4392C37.3007 53.1485 38.3491 53.7635 39.462 54.4163C39.7891 54.6082 40.1218 54.8033 40.4597 55.0051C41.6475 55.7143 42.8722 56.4911 44 57.4473C45.1278 56.4911 46.3525 55.7143 47.5403 55.0051C47.8782 54.8033 48.2109 54.6082 48.538 54.4163C49.6509 53.7635 50.6993 53.1485 51.6695 52.4392C52.9026 51.5378 53.9302 50.5362 54.6572 49.2421C55.3804 47.955 55.8462 46.3074 55.8462 44.0542C55.8462 42.0063 55.142 40.5612 54.1639 39.6244C53.1711 38.6734 51.8287 38.1818 50.4615 38.1818C49.0943 38.1818 47.7519 38.6734 46.7592 39.6244C45.7811 40.5612 45.0769 42.0063 45.0769 44.0542C45.0769 44.6566 44.5948 45.1451 44 45.1451C43.4052 45.1451 42.9231 44.6566 42.9231 44.0542ZM42.7207 38.0391C43.2145 38.5121 43.6459 39.0613 44 39.6828C44.3541 39.0613 44.7855 38.5121 45.2793 38.0391C46.7096 36.669 48.598 36 50.4615 36C52.3251 36 54.2135 36.669 55.6438 38.0391C57.0888 39.4233 58 41.4598 58 44.0542C58 46.6288 57.4631 48.6591 56.5291 50.3214C55.599 51.9767 54.3149 53.196 52.9299 54.2085C51.8632 54.9883 50.6889 55.6767 49.5598 56.3387C49.2466 56.5222 48.937 56.7038 48.6341 56.8846C47.2061 57.7373 45.8753 58.6032 44.7439 59.698C44.3276 60.1007 43.6724 60.1007 43.2561 59.698C42.1247 58.6032 40.7939 57.7373 39.3659 56.8846C39.063 56.7038 38.7534 56.5222 38.4402 56.3387C37.3111 55.6767 36.1368 54.9883 35.0701 54.2085C33.6851 53.196 32.401 51.9767 31.4709 50.3214C30.5369 48.6591 30 46.6288 30 44.0542C30 41.4598 30.9112 39.4233 32.3562 38.0391C33.7865 36.669 35.6749 36 37.5385 36C39.402 36 41.2904 36.669 42.7207 38.0391Z" fill="#F26522"/>
</svg>
