<svg width="52" height="52" viewBox="0 0 52 52" fill="none" xmlns="http://www.w3.org/2000/svg">
<path opacity="0.5" d="M21.7164 4.33331C20.7108 4.33331 19.7464 4.73279 19.0353 5.44387C18.3242 6.15494 17.9248 7.11937 17.9248 8.12498C17.9248 9.13059 18.3242 10.095 19.0353 10.8061C19.7464 11.5172 20.7108 11.9166 21.7164 11.9166H30.3831C31.3887 11.9166 32.3531 11.5172 33.0642 10.8061C33.7753 10.095 34.1748 9.13059 34.1748 8.12498C34.1748 7.11937 33.7753 6.15494 33.0642 5.44387C32.3531 4.73279 31.3887 4.33331 30.3831 4.33331H21.7164ZM8.42176 35.1108C6.56276 27.6748 5.63326 23.959 7.58326 21.4586C9.53326 18.9583 13.3683 18.9583 21.0339 18.9583H31.0656C38.7313 18.9583 42.5619 18.9583 44.5141 21.4586C46.4663 23.9568 45.5368 27.677 43.6778 35.1108C42.4948 39.8406 41.9054 42.2045 40.1418 43.5825C38.3781 44.9583 35.9406 44.9583 31.0656 44.9583H21.0339C16.1589 44.9583 13.7214 44.9583 11.9578 43.5825C10.1941 42.2045 9.60259 39.8406 8.42176 35.1108Z" fill="white"/>
<path d="M33.8086 9.75436C34.0516 9.24684 34.1781 8.69145 34.1788 8.12877C34.1796 7.5661 34.0546 7.01036 33.813 6.5022C35.2928 6.51303 36.4476 6.5802 37.4768 6.9832C38.708 7.46479 39.7787 8.28322 40.5665 9.34486C41.3616 10.4152 41.7365 11.7867 42.25 13.676L42.3496 14.0444L43.4611 20.4642C42.575 19.8532 41.4331 19.4892 39.9555 19.2725L39.1755 14.7507C38.558 12.4974 38.3348 11.7889 37.9578 11.2819C37.5335 10.7101 36.9569 10.2693 36.2938 10.01C35.8171 9.8237 35.243 9.7717 33.8086 9.75436ZM18.2888 6.5022C18.0472 7.01036 17.9222 7.5661 17.9229 8.12877C17.9237 8.69145 18.0502 9.24684 18.2931 9.75436C16.8588 9.76953 16.2846 9.8237 15.808 10.01C15.1449 10.2693 14.5682 10.7101 14.144 11.2819C13.767 11.7889 13.5438 12.4974 12.9285 14.7485L12.1463 19.2747C10.6686 19.4914 9.52679 19.8532 8.64062 20.462L9.75213 14.0444L9.85179 13.676C10.3653 11.7867 10.7401 10.4152 11.5353 9.3427C12.3237 8.28265 13.3943 7.46576 14.625 6.98536C15.6541 6.58236 16.809 6.5152 18.2888 6.50436" fill="white"/>
</svg>
