<svg width="52" height="52" viewBox="0 0 52 52" fill="none" xmlns="http://www.w3.org/2000/svg">
<path opacity="0.5" d="M47.6663 34.6667V32.5C47.6663 26.3705 47.6663 23.309 45.7618 21.4045C43.8573 19.5 40.7937 19.5 34.6663 19.5H17.333C11.2013 19.5 8.13984 19.5 6.23534 21.4067C4.33301 23.3068 4.33301 26.3683 4.33301 32.4957V34.6667C4.33301 40.794 4.33301 43.8577 6.23751 45.7622C8.13984 47.6667 11.2057 47.6667 17.333 47.6667H34.6663C40.7937 47.6667 43.8595 47.6667 45.7618 45.7622C47.6663 43.8577 47.6663 40.794 47.6663 34.6667Z" fill="white"/>
<path fill-rule="evenodd" clip-rule="evenodd" d="M25.9998 34.125C26.4308 34.125 26.8441 33.9538 27.1489 33.6491C27.4536 33.3443 27.6248 32.931 27.6248 32.5V8.72519L31.2648 12.974C31.5452 13.3016 31.9443 13.5043 32.3742 13.5376C32.8041 13.5709 33.2296 13.4321 33.5571 13.1517C33.8847 12.8713 34.0874 12.4722 34.1207 12.0423C34.1541 11.6124 34.0152 11.1869 33.7348 10.8594L27.2348 3.27603C27.0823 3.09764 26.8929 2.95441 26.6797 2.85621C26.4665 2.758 26.2345 2.70715 25.9998 2.70715C25.7651 2.70715 25.5331 2.758 25.3199 2.85621C25.1068 2.95441 24.9174 3.09764 24.7648 3.27603L18.2648 10.8594C18.126 11.0215 18.0204 11.2095 17.9542 11.4125C17.888 11.6154 17.8624 11.8295 17.8789 12.0423C17.8954 12.2552 17.9536 12.4627 18.0503 12.6531C18.147 12.8434 18.2803 13.0128 18.4425 13.1517C18.6047 13.2905 18.7926 13.3961 18.9956 13.4623C19.1985 13.5285 19.4126 13.5541 19.6254 13.5376C19.8383 13.5211 20.0458 13.4629 20.2362 13.3662C20.4265 13.2695 20.596 13.1362 20.7348 12.974L24.3748 8.72736V32.5C24.3748 33.397 25.1028 34.125 25.9998 34.125Z" fill="white"/>
</svg>
